# xmcd CD database file
#
# Track frame offsets:
#	150
#	28501
#	59102
#	109054
#	140029
#	187506
#	216307
#	248333
#
# Disc length: 3697 seconds
#
# Revision: 0
# Processed by: cddbd v1.5.1PL0 Copyright (c) Steve Scherf et al.
# Submitted via: CDex 1.51
#
DISCID=6d0e6f08
DTITLE=One For All - Killer Joe
DYEAR=2005
DGENRE=Jazz
TTITLE0=Killer Joe
TTITLE1=Island
TTITLE2=Night Mist Blues
TTITLE3=Mating Call
TTITLE4=Hot Sake
TTITLE5=Say When
TTITLE6=I Remember Clifford
TTITLE7=You Know I Care
EXTD=YEAR: 2005
EXTT0=
EXTT1=
EXTT2=
EXTT3=
EXTT4=
EXTT5=
EXTT6=
EXTT7=
PLAYORDER=
